<?xml version="1.0" encoding="utf-8"?>
<!-- Generated by IcoMoon.io -->
<!DOCTYPE svg PUBLIC "-//W3C//DTD SVG 1.1//EN" "http://www.w3.org/Graphics/SVG/1.1/DTD/svg11.dtd">
<svg version="1.1" xmlns="http://www.w3.org/2000/svg" xmlns:xlink="http://www.w3.org/1999/xlink" width="14" height="14" viewBox="0 0 14 14">
<path fill="#222222" d="M7 14c-3.866 0-7-3.134-7-7s3.134-7 7-7 7 3.134 7 7-3.134 7-7 7zM7 1.313c-3.141 0-5.688 2.546-5.688 5.688s2.546 5.688 5.688 5.688 5.688-2.546 5.688-5.688-2.546-5.688-5.688-5.688zM5.25 10.5c-0.483 0-0.875-0.392-0.875-0.875s0.392-0.875 0.875-0.875h2.263l-3.756-3.756c-0.342-0.342-0.342-0.896 0-1.237 0.171-0.171 0.395-0.256 0.619-0.256s0.448 0.085 0.619 0.256l3.756 3.756v-2.263c0-0.483 0.392-0.875 0.875-0.875s0.875 0.392 0.875 0.875v5.25h-5.25z"></path>
</svg>
