<?xml version="1.0" encoding="utf-8"?>
<!-- Generated by IcoMoon.io -->
<!DOCTYPE svg PUBLIC "-//W3C//DTD SVG 1.1//EN" "http://www.w3.org/Graphics/SVG/1.1/DTD/svg11.dtd">
<svg version="1.1" xmlns="http://www.w3.org/2000/svg" xmlns:xlink="http://www.w3.org/1999/xlink" width="464" height="224" viewBox="0 0 464 224">
<svg id="icon-sort-ascending" width="14" height="14" viewBox="0 0 14 14" x="0" y="0">
<path fill="#222" d="M4.3 4.4l-1.2 1.2 3.9 3.9 3.9-3.9-1.2-1.2-2.7 2.7-2.7-2.7z"></path>
</svg>
<svg id="icon-sort-descending" width="14" height="14" viewBox="0 0 14 14" x="30" y="0">
<path fill="#222" d="M9.7 9.6l1.2-1.2-3.9-3.9-3.9 3.9 1.2 1.2 2.7-2.7 2.7 2.7z"></path>
</svg>
<svg id="icon-sort" width="14" height="14" viewBox="0 0 14 14" x="60" y="0">
<path fill="#222" d="M9.7 6.4l1.2-1.2-3.9-3.9-3.9 3.9 1.2 1.2 2.7-2.7 2.7 2.7z"></path>
<path fill="#222" d="M4.3 7.6l-1.2 1.2 3.9 3.9 3.9-3.9-1.2-1.2-2.7 2.7-2.7-2.7z"></path>
</svg>
<svg id="icon-enter" width="14" height="14" viewBox="0 0 14 14" x="0" y="30">
<path fill="#222" d="M5.25 7h-4.375v-1.75h4.375v-1.75l2.625 2.625-2.625 2.625zM14 0v11.375l-5.25 2.625v-2.625h-5.25v-3.5h0.875v2.625h4.375v-7.875l3.5-1.75h-7.875v3.5h-0.875v-4.375z"></path>
</svg>
<svg id="icon-exit" width="14" height="14" viewBox="0 0 14 14" x="30" y="30">
<path fill="#222" d="M10.5 8.75v-1.75h-4.375v-1.75h4.375v-1.75l2.625 2.625zM9.625 7.875v3.5h-4.375v2.625l-5.25-2.625v-11.375h9.625v4.375h-0.875v-3.5h-7l3.5 1.75v7.875h3.5v-2.625z"></path>
</svg>
<svg id="icon-pencil" width="14" height="14" viewBox="0 0 14 14" x="60" y="30">
<path fill="#222" d="M11.813 0c1.208 0 2.188 0.979 2.188 2.188 0 0.492-0.163 0.947-0.438 1.313l-0.875 0.875-3.063-3.063 0.875-0.875c0.366-0.275 0.82-0.438 1.313-0.438zM0.875 10.063l-0.875 3.938 3.938-0.875 8.094-8.094-3.063-3.063-8.094 8.094zM9.783 4.971l-6.125 6.125-0.754-0.754 6.125-6.125 0.754 0.754z"></path>
</svg>
<svg id="icon-price-tag" width="14" height="14" viewBox="0 0 14 14" x="90" y="30">
<path fill="#222" d="M13.344 0h-5.25c-0.361 0-0.865 0.209-1.12 0.464l-6.509 6.509c-0.255 0.255-0.255 0.673 0 0.928l5.634 5.634c0.255 0.255 0.673 0.255 0.928 0l6.509-6.509c0.255-0.255 0.464-0.759 0.464-1.12v-5.25c0-0.361-0.295-0.656-0.656-0.656zM10.063 5.25c-0.725 0-1.313-0.588-1.313-1.313s0.588-1.313 1.313-1.313 1.313 0.588 1.313 1.313-0.588 1.313-1.313 1.313z"></path>
</svg>
<svg id="icon-credit-card" width="14" height="14" viewBox="0 0 14 14" x="120" y="30">
<path fill="#222" d="M12.688 1.75h-11.375c-0.722 0-1.313 0.591-1.313 1.313v7.875c0 0.722 0.591 1.313 1.313 1.313h11.375c0.722 0 1.313-0.591 1.313-1.313v-7.875c0-0.722-0.591-1.313-1.313-1.313zM1.313 2.625h11.375c0.237 0 0.438 0.2 0.438 0.438v1.313h-12.25v-1.313c0-0.237 0.2-0.438 0.438-0.438zM12.688 11.375h-11.375c-0.237 0-0.438-0.2-0.438-0.438v-3.938h12.25v3.938c0 0.237-0.2 0.438-0.438 0.438zM1.75 8.75h0.875v1.75h-0.875zM3.5 8.75h0.875v1.75h-0.875zM5.25 8.75h0.875v1.75h-0.875z"></path>
</svg>
<svg id="icon-lifebuoy" width="14" height="14" viewBox="0 0 14 14" x="150" y="30">
<path fill="#222" d="M7 0c-3.866 0-7 3.134-7 7s3.134 7 7 7 7-3.134 7-7-3.134-7-7-7zM4.375 7c0-1.45 1.175-2.625 2.625-2.625s2.625 1.175 2.625 2.625-1.175 2.625-2.625 2.625-2.625-1.175-2.625-2.625zM12.66 9.344v0l-2.426-1.005c0.171-0.413 0.266-0.865 0.266-1.34s-0.095-0.927-0.266-1.34l2.426-1.005c0.3 0.722 0.465 1.514 0.465 2.344s-0.166 1.622-0.465 2.344v0zM9.344 1.34v0 0l-1.005 2.426c-0.413-0.171-0.865-0.266-1.34-0.266s-0.927 0.095-1.34 0.266l-1.005-2.426c0.722-0.299 1.514-0.465 2.344-0.465s1.622 0.166 2.344 0.465zM1.34 4.656l2.426 1.005c-0.171 0.413-0.266 0.865-0.266 1.34s0.095 0.927 0.266 1.34l-2.426 1.005c-0.299-0.722-0.465-1.514-0.465-2.344s0.166-1.622 0.465-2.344zM4.656 12.66l1.005-2.426c0.413 0.171 0.865 0.266 1.34 0.266s0.927-0.095 1.34-0.266l1.005 2.426c-0.722 0.299-1.514 0.465-2.344 0.465s-1.622-0.166-2.344-0.465z"></path>
</svg>
<svg id="icon-users" width="16" height="14" viewBox="0 0 16 14" x="180" y="30">
<path fill="#222" d="M10.5 10.536v-0.722c0.964-0.543 1.75-1.897 1.75-3.252 0-2.175 0-3.938-2.625-3.938s-2.625 1.763-2.625 3.938c0 1.354 0.786 2.708 1.75 3.252v0.722c-2.968 0.243-5.25 1.701-5.25 3.464h12.25c0-1.763-2.282-3.222-5.25-3.464z"></path>
<path fill="#222" d="M4.473 10.874c0.756-0.494 1.696-0.87 2.731-1.099-0.206-0.243-0.392-0.514-0.554-0.807-0.416-0.755-0.636-1.587-0.636-2.405 0-1.176 0-2.287 0.418-3.196 0.406-0.882 1.137-1.429 2.177-1.634-0.231-1.046-0.847-1.733-2.486-1.733-2.625 0-2.625 1.763-2.625 3.938 0 1.354 0.786 2.708 1.75 3.252v0.722c-2.968 0.243-5.25 1.701-5.25 3.464h3.815c0.198-0.177 0.418-0.344 0.659-0.501z"></path>
</svg>
<svg id="icon-spinner3" width="14" height="14" viewBox="0 0 14 14" x="210" y="30">
<path fill="#222" d="M7 4.144c-0.451 0-0.816-0.365-0.816-0.816v-2.448c0-0.451 0.365-0.816 0.816-0.816s0.816 0.365 0.816 0.816v2.448c0 0.451-0.365 0.816-0.816 0.816z"></path>
<path fill="#222" d="M7 13.63c-0.282 0-0.51-0.228-0.51-0.51v-2.448c0-0.282 0.228-0.51 0.51-0.51s0.51 0.228 0.51 0.51v2.448c0 0.282-0.228 0.51-0.51 0.51z"></path>
<path fill="#222" d="M5.165 4.585c-0.264 0-0.522-0.137-0.663-0.383l-1.224-2.12c-0.211-0.366-0.086-0.834 0.28-1.045s0.834-0.086 1.045 0.28l1.224 2.12c0.211 0.366 0.086 0.834-0.28 1.045-0.12 0.070-0.252 0.103-0.382 0.103z"></path>
<path fill="#222" d="M10.061 12.759c-0.159 0-0.313-0.082-0.398-0.23l-1.224-2.12c-0.127-0.22-0.052-0.5 0.168-0.627s0.5-0.052 0.627 0.168l1.224 2.12c0.127 0.22 0.052 0.5-0.168 0.627-0.072 0.042-0.151 0.062-0.229 0.062z"></path>
<path fill="#222" d="M3.819 5.878c-0.121 0-0.244-0.031-0.356-0.096l-2.12-1.224c-0.341-0.197-0.459-0.634-0.261-0.975s0.634-0.459 0.975-0.261l2.12 1.224c0.342 0.197 0.459 0.634 0.261 0.975-0.132 0.229-0.372 0.357-0.619 0.357z"></path>
<path fill="#222" d="M12.3 10.468c-0.069 0-0.139-0.018-0.204-0.055l-2.12-1.224c-0.195-0.113-0.262-0.362-0.149-0.557s0.362-0.262 0.557-0.149l2.12 1.224c0.195 0.113 0.262 0.362 0.149 0.557-0.076 0.131-0.213 0.204-0.354 0.204z"></path>
<path fill="#222" d="M3.328 7.663h-2.448c-0.366 0-0.663-0.297-0.663-0.663s0.297-0.663 0.663-0.663h2.448c0.366 0 0.663 0.297 0.663 0.663s-0.297 0.663-0.663 0.663z"></path>
<path fill="#222" d="M13.12 7.408c-0 0 0 0 0 0h-2.448c-0.225-0-0.408-0.183-0.408-0.408s0.183-0.408 0.408-0.408c0 0 0 0 0 0h2.448c0.225 0 0.408 0.183 0.408 0.408s-0.183 0.408-0.408 0.408z"></path>
<path fill="#222" d="M1.7 10.672c-0.212 0-0.417-0.11-0.531-0.306-0.169-0.293-0.069-0.667 0.224-0.836l2.12-1.224c0.293-0.169 0.667-0.069 0.836 0.224s0.069 0.667-0.224 0.836l-2.12 1.224c-0.096 0.056-0.202 0.082-0.305 0.082z"></path>
<path fill="#222" d="M10.181 5.572c-0.141 0-0.278-0.073-0.354-0.204-0.113-0.195-0.046-0.445 0.149-0.557l2.12-1.224c0.195-0.113 0.445-0.046 0.557 0.149s0.046 0.445-0.149 0.557l-2.12 1.224c-0.064 0.037-0.134 0.055-0.204 0.055z"></path>
<path fill="#222" d="M3.939 12.861c-0.095 0-0.192-0.024-0.28-0.075-0.268-0.155-0.36-0.498-0.205-0.766l1.224-2.12c0.155-0.268 0.498-0.36 0.766-0.205s0.36 0.498 0.205 0.766l-1.224 2.12c-0.104 0.18-0.292 0.281-0.486 0.281z"></path>
<path fill="#222" d="M8.836 4.228c-0.069 0-0.139-0.018-0.204-0.055-0.195-0.113-0.262-0.362-0.149-0.557l1.224-2.12c0.113-0.195 0.362-0.262 0.557-0.149s0.262 0.362 0.149 0.557l-1.224 2.12c-0.076 0.131-0.213 0.204-0.354 0.204z"></path>
</svg>
<svg id="icon-airplane" width="14" height="14" viewBox="0 0 14 14" x="240" y="30">
<path fill="#222" d="M10.5 8.75l-2.499-2.5 5.999-4.5-1.75-1.75-7.499 3-2.361-2.361c-0.681-0.681-1.631-0.844-2.112-0.362s-0.318 1.432 0.362 2.112l2.361 2.361-3 7.5 1.75 1.75 4.501-6 2.5 2.5v3.5h1.75l0.875-2.625 2.625-0.875v-1.75l-3.5 0z"></path>
</svg>
<svg id="icon-list-numbered" width="14" height="14" viewBox="0 0 14 14" x="270" y="30">
<path fill="#222" d="M5.25 11.375h8.75v1.75h-8.75zM5.25 6.125h8.75v1.75h-8.75zM5.25 0.875h8.75v1.75h-8.75zM2.625 0v3.5h-0.875v-2.625h-0.875v-0.875zM1.75 7.191v0.684h1.75v0.875h-2.625v-1.996l1.75-0.82v-0.684h-1.75v-0.875h2.625v1.996zM3.5 9.625v4.375h-2.625v-0.875h1.75v-0.875h-1.75v-0.875h1.75v-0.875h-1.75v-0.875z"></path>
</svg>
<svg id="icon-list" width="14" height="14" viewBox="0 0 14 14" x="300" y="30">
<path fill="#222" d="M0 0h3.5v3.5h-3.5zM5.25 0.875h8.75v1.75h-8.75zM0 5.25h3.5v3.5h-3.5zM5.25 6.125h8.75v1.75h-8.75zM0 10.5h3.5v3.5h-3.5zM5.25 11.375h8.75v1.75h-8.75z"></path>
</svg>
<svg id="icon-list2" width="14" height="14" viewBox="0 0 14 14" x="330" y="30">
<path fill="#222" d="M5.25 0.875h8.75v1.75h-8.75v-1.75zM5.25 6.125h8.75v1.75h-8.75v-1.75zM5.25 11.375h8.75v1.75h-8.75v-1.75zM0 1.75c0-0.966 0.784-1.75 1.75-1.75s1.75 0.784 1.75 1.75c0 0.966-0.784 1.75-1.75 1.75s-1.75-0.784-1.75-1.75zM0 7c0-0.966 0.784-1.75 1.75-1.75s1.75 0.784 1.75 1.75c0 0.966-0.784 1.75-1.75 1.75s-1.75-0.784-1.75-1.75zM0 12.25c0-0.966 0.784-1.75 1.75-1.75s1.75 0.784 1.75 1.75c0 0.966-0.784 1.75-1.75 1.75s-1.75-0.784-1.75-1.75z"></path>
</svg>
<svg id="icon-link" width="14" height="14" viewBox="0 0 14 14" x="360" y="30">
<path fill="#222" d="M6.019 8.692c-0.182 0-0.364-0.069-0.503-0.208-1.301-1.301-1.301-3.417 0-4.718l2.625-2.625c0.63-0.63 1.468-0.977 2.359-0.977s1.729 0.347 2.359 0.977c1.301 1.301 1.301 3.417 0 4.718l-1.2 1.2c-0.278 0.278-0.728 0.278-1.005 0s-0.278-0.728 0-1.005l1.2-1.2c0.746-0.746 0.746-1.961 0-2.707-0.362-0.362-0.842-0.561-1.353-0.561s-0.992 0.199-1.353 0.561l-2.625 2.625c-0.746 0.746-0.746 1.961 0 2.707 0.278 0.278 0.278 0.728 0 1.005-0.139 0.139-0.321 0.208-0.503 0.208z"></path>
<path fill="#222" d="M3.5 13.836c-0.891 0-1.729-0.347-2.359-0.977-1.301-1.301-1.301-3.417 0-4.718l1.2-1.2c0.278-0.278 0.728-0.278 1.005 0s0.278 0.728 0 1.005l-1.2 1.2c-0.746 0.746-0.746 1.961 0 2.707 0.361 0.361 0.842 0.561 1.353 0.561s0.992-0.199 1.353-0.561l2.625-2.625c0.746-0.746 0.746-1.961 0-2.707-0.278-0.278-0.278-0.728 0-1.005s0.728-0.278 1.005 0c1.301 1.301 1.301 3.417 0 4.718l-2.625 2.625c-0.63 0.63-1.468 0.977-2.359 0.977z"></path>
</svg>
<svg id="icon-blocked" width="14" height="14" viewBox="0 0 14 14" x="390" y="30">
<path fill="#222" d="M11.95 2.050c-1.322-1.322-3.080-2.050-4.95-2.050s-3.628 0.728-4.95 2.050c-1.322 1.322-2.050 3.080-2.050 4.95s0.728 3.628 2.050 4.95c1.322 1.322 3.080 2.050 4.95 2.050s3.628-0.728 4.95-2.050c1.322-1.322 2.050-3.080 2.050-4.95s-0.728-3.628-2.050-4.95zM12.25 7c0 1.132-0.36 2.182-0.972 3.040l-7.318-7.318c0.858-0.612 1.908-0.972 3.040-0.972 2.895 0 5.25 2.355 5.25 5.25zM1.75 7c0-1.132 0.36-2.182 0.972-3.040l7.318 7.318c-0.859 0.612-1.908 0.972-3.040 0.972-2.895 0-5.25-2.355-5.25-5.25z"></path>
</svg>
<svg id="icon-cross" width="14" height="14" viewBox="0 0 14 14" x="420" y="30">
<path fill="#222" d="M13.872 11.247c-0-0-0-0-0-0l-4.247-4.247 4.247-4.247c0-0 0-0 0-0 0.046-0.046 0.079-0.099 0.1-0.156 0.058-0.156 0.025-0.337-0.1-0.463l-2.006-2.006c-0.125-0.125-0.307-0.158-0.462-0.1-0.057 0.021-0.11 0.054-0.156 0.1 0 0-0 0-0 0l-4.247 4.247-4.247-4.247c-0-0-0-0-0-0-0.046-0.046-0.099-0.079-0.156-0.1-0.156-0.058-0.337-0.025-0.463 0.1l-2.006 2.006c-0.125 0.125-0.158 0.307-0.1 0.462 0.021 0.057 0.054 0.11 0.1 0.156 0 0 0 0 0 0l4.247 4.247-4.247 4.247c-0 0-0 0-0 0-0.046 0.046-0.079 0.099-0.1 0.156-0.058 0.156-0.025 0.337 0.1 0.463l2.006 2.006c0.125 0.125 0.307 0.158 0.463 0.1 0.057-0.021 0.11-0.054 0.156-0.1 0-0 0-0 0-0l4.247-4.247 4.247 4.247c0 0 0 0 0 0 0.046 0.046 0.099 0.079 0.156 0.1 0.156 0.058 0.337 0.025 0.462-0.1l2.006-2.006c0.125-0.125 0.158-0.307 0.1-0.463-0.021-0.057-0.054-0.11-0.1-0.156z"></path>
</svg>
<svg id="icon-checkmark" width="14" height="14" viewBox="0 0 14 14" x="450" y="30">
<path fill="#222" d="M11.813 1.75l-6.563 6.563-3.063-3.063-2.188 2.188 5.25 5.25 8.75-8.75z"></path>
</svg>
<svg id="icon-play" width="14" height="14" viewBox="0 0 14 14" x="0" y="60">
<path fill="#222" d="M7 0c-3.866 0-7 3.134-7 7s3.134 7 7 7 7-3.134 7-7-3.134-7-7-7zM7 12.688c-3.141 0-5.688-2.546-5.688-5.688s2.546-5.688 5.688-5.688 5.688 2.546 5.688 5.688-2.546 5.688-5.688 5.688zM5.25 3.938l5.25 3.063-5.25 3.063z"></path>
</svg>
<svg id="icon-pause" width="14" height="14" viewBox="0 0 14 14" x="30" y="60">
<path fill="#222" d="M7 0c-3.866 0-7 3.134-7 7s3.134 7 7 7 7-3.134 7-7-3.134-7-7-7zM7 12.688c-3.141 0-5.688-2.546-5.688-5.688s2.546-5.688 5.688-5.688 5.688 2.546 5.688 5.688-2.546 5.688-5.688 5.688zM4.375 4.375h1.75v5.25h-1.75zM7.875 4.375h1.75v5.25h-1.75z"></path>
</svg>
<svg id="icon-stop" width="14" height="14" viewBox="0 0 14 14" x="60" y="60">
<path fill="#222" d="M7 0c-3.866 0-7 3.134-7 7s3.134 7 7 7 7-3.134 7-7-3.134-7-7-7zM7 12.688c-3.141 0-5.688-2.546-5.688-5.688s2.546-5.688 5.688-5.688 5.688 2.546 5.688 5.688-2.546 5.688-5.688 5.688zM4.375 4.375h5.25v5.25h-5.25z"></path>
</svg>
<svg id="icon-previous" width="14" height="14" viewBox="0 0 14 14" x="90" y="60">
<path fill="#222" d="M7 0c-3.866 0-7 3.134-7 7s3.134 7 7 7 7-3.134 7-7-3.134-7-7-7zM7 12.688c-3.141 0-5.688-2.546-5.688-5.688s2.546-5.688 5.688-5.688 5.688 2.546 5.688 5.688-2.546 5.688-5.688 5.688z"></path>
<path fill="#222" d="M6.125 7l3.5-2.625v5.25z"></path>
<path fill="#222" d="M4.375 4.375h1.75v5.25h-1.75v-5.25z"></path>
</svg>
<svg id="icon-next" width="14" height="14" viewBox="0 0 14 14" x="120" y="60">
<path fill="#222" d="M7 0c3.866 0 7 3.134 7 7s-3.134 7-7 7-7-3.134-7-7 3.134-7 7-7zM7 12.688c3.141 0 5.688-2.546 5.688-5.688s-2.546-5.688-5.688-5.688-5.688 2.546-5.688 5.688 2.546 5.688 5.688 5.688z"></path>
<path fill="#222" d="M7.875 7l-3.5-2.625v5.25z"></path>
<path fill="#222" d="M9.625 4.375h-1.75v5.25h1.75v-5.25z"></path>
</svg>
<svg id="icon-backward" width="14" height="14" viewBox="0 0 14 14" x="150" y="60">
<path fill="#222" d="M7 14c3.866 0 7-3.134 7-7s-3.134-7-7-7-7 3.134-7 7 3.134 7 7 7zM7 1.313c3.141 0 5.688 2.546 5.688 5.688s-2.546 5.688-5.688 5.688-5.688-2.546-5.688-5.688 2.546-5.688 5.688-5.688zM9.625 9.188l-3.063-2.188 3.063-2.188zM6.125 9.188l-3.063-2.188 3.063-2.188z"></path>
</svg>
<svg id="icon-forward2" width="14" height="14" viewBox="0 0 14 14" x="180" y="60">
<path fill="#222" d="M7 0c-3.866 0-7 3.134-7 7s3.134 7 7 7 7-3.134 7-7-3.134-7-7-7zM7 12.688c-3.141 0-5.688-2.546-5.688-5.688s2.546-5.688 5.688-5.688 5.688 2.546 5.688 5.688-2.546 5.688-5.688 5.688zM4.375 4.813l3.063 2.188-3.063 2.188zM7.875 4.813l3.063 2.188-3.063 2.188z"></path>
</svg>
<svg id="icon-arrow-up" width="14" height="14" viewBox="0 0 14 14" x="210" y="60">
<path fill="#222" d="M7 0.438l-6.563 6.563h3.938v7h5.25v-7h3.938z"></path>
</svg>
<svg id="icon-arrow-right" width="14" height="14" viewBox="0 0 14 14" x="240" y="60">
<path fill="#222" d="M13.563 7l-6.563-6.563v3.938h-7v5.25h7v3.938z"></path>
</svg>
<svg id="icon-arrow-down" width="14" height="14" viewBox="0 0 14 14" x="270" y="60">
<path fill="#222" d="M7 13.563l6.563-6.563h-3.938v-7h-5.25v7h-3.938z"></path>
</svg>
<svg id="icon-arrow-left" width="14" height="14" viewBox="0 0 14 14" x="300" y="60">
<path fill="#222" d="M0.438 7l6.563 6.563v-3.938h7v-5.25h-7v-3.938z"></path>
</svg>
<svg id="icon-arrow-up2" width="14" height="14" viewBox="0 0 14 14" x="330" y="60">
<path fill="#222" d="M11.994 5.506l-4.375-4.375c-0.342-0.342-0.896-0.342-1.237 0l-4.375 4.375c-0.342 0.342-0.342 0.896 0 1.237s0.896 0.342 1.237 0l2.881-2.881v8.388c0 0.483 0.392 0.875 0.875 0.875s0.875-0.392 0.875-0.875v-8.388l2.881 2.881c0.171 0.171 0.395 0.256 0.619 0.256s0.448-0.085 0.619-0.256c0.342-0.342 0.342-0.896 0-1.237z"></path>
</svg>
<svg id="icon-arrow-right2" width="14" height="14" viewBox="0 0 14 14" x="360" y="60">
<path fill="#222" d="M8.494 11.994l4.375-4.375c0.342-0.342 0.342-0.896 0-1.237l-4.375-4.375c-0.342-0.342-0.896-0.342-1.237 0s-0.342 0.896 0 1.237l2.881 2.881h-8.388c-0.483 0-0.875 0.392-0.875 0.875s0.392 0.875 0.875 0.875h8.388l-2.881 2.881c-0.171 0.171-0.256 0.395-0.256 0.619s0.085 0.448 0.256 0.619c0.342 0.342 0.896 0.342 1.237 0z"></path>
</svg>
<svg id="icon-arrow-down2" width="14" height="14" viewBox="0 0 14 14" x="390" y="60">
<path fill="#222" d="M11.994 8.494l-4.375 4.375c-0.342 0.342-0.896 0.342-1.237 0l-4.375-4.375c-0.342-0.342-0.342-0.896 0-1.237s0.896-0.342 1.237 0l2.881 2.881v-8.388c0-0.483 0.392-0.875 0.875-0.875s0.875 0.392 0.875 0.875v8.388l2.881-2.881c0.171-0.171 0.395-0.256 0.619-0.256s0.448 0.085 0.619 0.256c0.342 0.342 0.342 0.896 0 1.237z"></path>
</svg>
<svg id="icon-arrow-left2" width="14" height="14" viewBox="0 0 14 14" x="420" y="60">
<path fill="#222" d="M5.506 11.994l-4.375-4.375c-0.342-0.342-0.342-0.896 0-1.237l4.375-4.375c0.342-0.342 0.896-0.342 1.237 0s0.342 0.896 0 1.237l-2.881 2.881h8.388c0.483 0 0.875 0.392 0.875 0.875s-0.392 0.875-0.875 0.875h-8.388l2.881 2.881c0.171 0.171 0.256 0.395 0.256 0.619s-0.085 0.448-0.256 0.619c-0.342 0.342-0.896 0.342-1.237 0z"></path>
</svg>
<svg id="icon-circle-up" width="14" height="14" viewBox="0 0 14 14" x="450" y="60">
<path fill="#222" d="M14 7c0 3.866-3.134 7-7 7s-7-3.134-7-7 3.134-7 7-7 7 3.134 7 7zM1.313 7c0 3.141 2.546 5.688 5.688 5.688s5.688-2.546 5.688-5.688-2.546-5.688-5.688-5.688-5.688 2.546-5.688 5.688z"></path>
<path fill="#222" d="M4.337 9.15l-1.237-1.237 3.9-3.9 3.9 3.9-1.237 1.237-2.663-2.663z"></path>
</svg>
<svg id="icon-circle-right" width="14" height="14" viewBox="0 0 14 14" x="0" y="90">
<path fill="#222" d="M7 0c-3.866 0-7 3.134-7 7s3.134 7 7 7 7-3.134 7-7-3.134-7-7-7zM7 12.688c-3.141 0-5.688-2.546-5.688-5.688s2.546-5.688 5.688-5.688 5.688 2.546 5.688 5.688-2.546 5.688-5.688 5.688z"></path>
<path fill="#222" d="M4.85 9.663l1.237 1.237 3.9-3.9-3.9-3.9-1.237 1.237 2.663 2.663z"></path>
</svg>
<svg id="icon-circle-down" width="14" height="14" viewBox="0 0 14 14" x="30" y="90">
<path fill="#222" d="M14 7c0-3.866-3.134-7-7-7s-7 3.134-7 7 3.134 7 7 7 7-3.134 7-7zM1.313 7c0-3.141 2.546-5.688 5.688-5.688s5.688 2.546 5.688 5.688-2.546 5.688-5.688 5.688-5.688-2.546-5.688-5.688z"></path>
<path fill="#222" d="M4.337 4.85l-1.237 1.237 3.9 3.9 3.9-3.9-1.237-1.237-2.663 2.663z"></path>
</svg>
<svg id="icon-circle-left" width="14" height="14" viewBox="0 0 14 14" x="60" y="90">
<path fill="#222" d="M7 14c3.866 0 7-3.134 7-7s-3.134-7-7-7-7 3.134-7 7 3.134 7 7 7zM7 1.313c3.141 0 5.688 2.546 5.688 5.688s-2.546 5.688-5.688 5.688-5.688-2.546-5.688-5.688 2.546-5.688 5.688-5.688z"></path>
<path fill="#222" d="M9.15 4.337l-1.237-1.237-3.9 3.9 3.9 3.9 1.237-1.237-2.663-2.663z"></path>
</svg>
<svg id="icon-sort-alpha-asc" width="14" height="14" viewBox="0 0 14 14" x="90" y="90">
<path fill="#222" d="M4.375 10.5v-10.5h-1.75v10.5h-2.188l3.063 3.063 3.063-3.063h-2.188z"></path>
<path fill="#222" d="M12.688 14h-3.5c-0.161 0-0.31-0.089-0.386-0.231s-0.068-0.315 0.022-0.449l3.047-4.57h-2.683c-0.242 0-0.438-0.196-0.438-0.438s0.196-0.438 0.438-0.438h3.5c0.161 0 0.31 0.089 0.386 0.231s0.068 0.315-0.022 0.449l-3.047 4.57h2.683c0.242 0 0.438 0.196 0.438 0.438s-0.196 0.438-0.438 0.438z"></path>
<path fill="#222" d="M13.954 5.492l-2.625-5.25c-0.074-0.148-0.226-0.242-0.391-0.242s-0.317 0.094-0.391 0.242l-2.625 5.25c-0.108 0.216-0.020 0.479 0.196 0.587 0.063 0.031 0.13 0.046 0.195 0.046 0.16 0 0.315-0.089 0.392-0.242l0.754-1.508h2.959l0.754 1.508c0.108 0.216 0.371 0.304 0.587 0.196s0.304-0.371 0.196-0.587zM9.895 3.5l1.042-2.084 1.042 2.084h-2.084z"></path>
</svg>
<svg id="icon-sort-alpha-desc" width="14" height="14" viewBox="0 0 14 14" x="120" y="90">
<path fill="#222" d="M4.375 10.5v-10.5h-1.75v10.5h-2.188l3.063 3.063 3.063-3.063h-2.188z"></path>
<path fill="#222" d="M12.688 6.125h-3.5c-0.161 0-0.31-0.089-0.386-0.231s-0.068-0.315 0.022-0.449l3.047-4.57h-2.683c-0.242 0-0.438-0.196-0.438-0.438s0.196-0.438 0.438-0.438h3.5c0.161 0 0.31 0.089 0.386 0.231s0.068 0.315-0.022 0.449l-3.047 4.57h2.683c0.242 0 0.438 0.196 0.438 0.438s-0.196 0.438-0.438 0.438z"></path>
<path fill="#222" d="M13.954 13.367l-2.625-5.25c-0.074-0.148-0.226-0.242-0.391-0.242s-0.317 0.094-0.391 0.242l-2.625 5.25c-0.108 0.216-0.020 0.479 0.196 0.587 0.063 0.031 0.13 0.046 0.195 0.046 0.16 0 0.315-0.089 0.392-0.242l0.754-1.508h2.959l0.754 1.508c0.108 0.216 0.371 0.304 0.587 0.196s0.304-0.371 0.196-0.587zM9.895 11.375l1.042-2.084 1.042 2.084h-2.084z"></path>
</svg>
<svg id="icon-sort-numeric-asc" width="14" height="14" viewBox="0 0 14 14" x="150" y="90">
<path fill="#222" d="M4.375 10.5v-10.5h-1.75v10.5h-2.188l3.063 3.063 3.063-3.063h-2.188z"></path>
<path fill="#222" d="M11.813 6.125c-0.242 0-0.438-0.196-0.438-0.438v-4.813h-0.438c-0.242 0-0.438-0.196-0.438-0.438s0.196-0.438 0.438-0.438h0.875c0.242 0 0.438 0.196 0.438 0.438v5.25c0 0.242-0.196 0.438-0.438 0.438z"></path>
<path fill="#222" d="M12.688 7.875h-2.625c-0.242 0-0.438 0.196-0.438 0.438v2.625c0 0.242 0.196 0.438 0.438 0.438h2.188v1.75h-2.188c-0.242 0-0.438 0.196-0.438 0.438s0.196 0.438 0.438 0.438h2.625c0.242 0 0.438-0.196 0.438-0.438v-5.25c0-0.242-0.196-0.438-0.438-0.438zM10.5 8.75h1.75v1.75h-1.75v-1.75z"></path>
</svg>
<svg id="icon-sort-numberic-desc" width="14" height="14" viewBox="0 0 14 14" x="180" y="90">
<path fill="#222" d="M4.375 10.5v-10.5h-1.75v10.5h-2.188l3.063 3.063 3.063-3.063h-2.188z"></path>
<path fill="#222" d="M11.813 14c-0.242 0-0.438-0.196-0.438-0.438v-4.813h-0.438c-0.242 0-0.438-0.196-0.438-0.438s0.196-0.438 0.438-0.438h0.875c0.242 0 0.438 0.196 0.438 0.438v5.25c0 0.242-0.196 0.438-0.438 0.438z"></path>
<path fill="#222" d="M12.688 0h-2.625c-0.242 0-0.438 0.196-0.438 0.438v2.625c0 0.242 0.196 0.438 0.438 0.438h2.188v1.75h-2.188c-0.242 0-0.438 0.196-0.438 0.438s0.196 0.438 0.438 0.438h2.625c0.242 0 0.438-0.196 0.438-0.438v-5.25c0-0.242-0.196-0.438-0.438-0.438zM10.5 0.875h1.75v1.75h-1.75v-1.75z"></path>
</svg>
<svg id="icon-accessible" width="14" height="14" viewBox="0 0 14 14" x="210" y="90">
<path fill="#222" d="M8.75 9.581c-0.175 1.531-1.487 2.713-3.063 2.713-1.706 0-3.063-1.356-3.063-3.063 0-0.963 0.438-1.794 1.094-2.363v-1.269c-1.313 0.7-2.188 2.056-2.188 3.631 0 2.275 1.837 4.113 4.112 4.113 1.75 0 3.194-1.050 3.85-2.581l-0.744-1.181z"></path>
<path fill="#222" d="M12.644 10.369l-0.875 0.569-2.188-3.675-4.2 0.044v-0.875h2.231v-0.919h-2.231v-2.187c0.525-0.219 0.875-0.7 0.875-1.269 0-0.744-0.613-1.4-1.4-1.4-0.744 0-1.356 0.613-1.356 1.4 0 0.613 0.394 1.137 0.919 1.313v4.856h4.637l2.406 4.025 1.662-1.094-0.481-0.787z"></path>
</svg>
<svg id="icon-square" width="14" height="14" viewBox="0 0 14 14" x="240" y="90">
<path fill="#222" d="M0 0h14v14h-14v-14z"></path>
</svg>
<svg id="icon-triangle" width="14" height="14" viewBox="0 0 14 14" x="270" y="90">
<path fill="#222" d="M7 12.6h-7l7-12.040 7 12.040z"></path>
</svg>
<svg id="icon-linkedIn" width="14" height="14" viewBox="0 0 14 14" x="300" y="90">
<path fill="#222" d="M7 0c-3.866 0-7 3.135-7 7s3.134 7 7 7 7-3.134 7-7-3.134-7-7-7zM5.221 10.215h-1.596v-5.136h1.596v5.136zM4.412 4.449c-0.504 0-0.84-0.357-0.83-0.798-0.010-0.462 0.326-0.809 0.84-0.809s0.84 0.347 0.851 0.809c-0 0.441-0.336 0.798-0.861 0.798zM10.746 10.215h-1.596v-2.846c0-0.662-0.231-1.113-0.809-1.113-0.441 0-0.704 0.304-0.808 0.599-0.042 0.095-0.063 0.252-0.063 0.399v2.962h-1.596v-3.498c0-0.641-0.021-1.187-0.042-1.638h1.386l0.073 0.704h0.032c0.21-0.325 0.735-0.819 1.586-0.819 1.050 0 1.838 0.693 1.838 2.206v3.045z"></path>
</svg>
<svg id="icon-home" width="14" height="14" viewBox="0 0 14 14" x="330" y="90">
<path fill="#222" d="M14 8.072l-7-5.434-7 5.434v-2.215l7-5.434 7 5.434zM12.25 7.875v5.25h-3.5v-3.5h-3.5v3.5h-3.5v-5.25l5.25-3.938z"></path>
</svg>
<svg id="icon-currency" width="14" height="14" viewBox="0 0 14 14" x="360" y="90">
<path fill="#222" d="M6.563 0.875c-3.624 0-6.563 2.938-6.563 6.563s2.938 6.563 6.563 6.563c3.624 0 6.563-2.938 6.563-6.563s-2.938-6.563-6.563-6.563zM6.563 12.688c-2.9 0-5.25-2.35-5.25-5.25s2.35-5.25 5.25-5.25c2.9 0 5.25 2.35 5.25 5.25s-2.35 5.25-5.25 5.25zM7 7v-1.75h1.75v-0.875h-1.75v-0.875h-0.875v0.875h-1.75v3.5h1.75v1.75h-1.75v0.875h1.75v0.875h0.875v-0.875h1.75l-0-3.5h-1.75zM6.125 7h-0.875v-1.75h0.875v1.75zM7.875 9.625h-0.875v-1.75h0.875v1.75z"></path>
</svg>
<svg id="icon-phone" width="14" height="14" viewBox="0 0 14 14" x="390" y="90">
<path fill="#222" d="M9.625 8.75c-0.875 0.875-0.875 1.75-1.75 1.75s-1.75-0.875-2.625-1.75-1.75-1.75-1.75-2.625 0.875-0.875 1.75-1.75-1.75-3.5-2.625-3.5-2.625 2.625-2.625 2.625c0 1.75 1.798 5.298 3.5 7s5.25 3.5 7 3.5c0 0 2.625-1.75 2.625-2.625s-2.625-3.5-3.5-2.625z"></path>
</svg>
<svg id="icon-location" width="14" height="14" viewBox="0 0 14 14" x="420" y="90">
<path fill="#222" d="M7 0c-2.416 0-4.375 1.959-4.375 4.375 0 4.375 4.375 9.625 4.375 9.625s4.375-5.25 4.375-9.625c0-2.416-1.959-4.375-4.375-4.375zM7 7c-1.45 0-2.625-1.175-2.625-2.625s1.175-2.625 2.625-2.625 2.625 1.175 2.625 2.625-1.175 2.625-2.625 2.625z"></path>
</svg>
<svg id="icon-calendar" width="14" height="14" viewBox="0 0 14 14" x="450" y="90">
<path fill="#222" d="M4.375 5.25h1.75v1.75h-1.75zM7 5.25h1.75v1.75h-1.75zM9.625 5.25h1.75v1.75h-1.75zM1.75 10.5h1.75v1.75h-1.75zM4.375 10.5h1.75v1.75h-1.75zM7 10.5h1.75v1.75h-1.75zM4.375 7.875h1.75v1.75h-1.75zM7 7.875h1.75v1.75h-1.75zM9.625 7.875h1.75v1.75h-1.75zM1.75 7.875h1.75v1.75h-1.75zM11.375 0v0.875h-1.75v-0.875h-6.125v0.875h-1.75v-0.875h-1.75v14h13.125v-14h-1.75zM12.25 13.125h-11.375v-9.625h11.375v9.625z"></path>
</svg>
<svg id="icon-user" width="14" height="14" viewBox="0 0 14 14" x="0" y="120">
<path fill="#222" d="M8.515 9.608c-0.302-0.048-0.309-0.879-0.309-0.879s0.888-0.879 1.082-2.062c0.521 0 0.842-1.257 0.322-1.699 0.022-0.466 0.669-3.655-2.609-3.655s-2.631 3.189-2.609 3.655c-0.521 0.442-0.199 1.699 0.322 1.699 0.194 1.182 1.082 2.062 1.082 2.062s-0.007 0.831-0.309 0.879c-0.974 0.155-4.61 1.759-4.61 3.517h12.25c0-1.759-3.636-3.362-4.61-3.517z"></path>
</svg>
<svg id="icon-search" width="14" height="14" viewBox="0 0 14 14" x="30" y="120">
<path fill="#222" d="M13.566 11.914l-3.316-2.82c-0.343-0.309-0.709-0.45-1.006-0.436 0.783-0.917 1.256-2.107 1.256-3.407 0-2.9-2.35-5.25-5.25-5.25s-5.25 2.35-5.25 5.25c0 2.9 2.35 5.25 5.25 5.25 1.3 0 2.49-0.473 3.407-1.256-0.014 0.296 0.128 0.663 0.436 1.006l2.82 3.316c0.483 0.537 1.272 0.582 1.753 0.101s0.436-1.27-0.101-1.753zM5.25 8.75c-1.933 0-3.5-1.567-3.5-3.5s1.567-3.5 3.5-3.5 3.5 1.567 3.5 3.5-1.567 3.5-3.5 3.5z"></path>
</svg>
<svg id="icon-lock" width="14" height="14" viewBox="0 0 14 14" x="60" y="120">
<path fill="#222" d="M8.094 6.125h-0.219v-2.625c0-1.447-1.178-2.625-2.625-2.625h-1.75c-1.447 0-2.625 1.178-2.625 2.625v2.625h-0.219c-0.361 0-0.656 0.295-0.656 0.656v6.563c0 0.361 0.295 0.656 0.656 0.656h7.438c0.361 0 0.656-0.295 0.656-0.656v-6.563c0-0.361-0.295-0.656-0.656-0.656zM5.25 12.25h-1.75l0.381-1.903c-0.23-0.158-0.381-0.422-0.381-0.722 0-0.483 0.392-0.875 0.875-0.875s0.875 0.392 0.875 0.875c0 0.3-0.151 0.564-0.381 0.722l0.381 1.903zM6.125 6.125h-3.5v-2.625c0-0.482 0.393-0.875 0.875-0.875h1.75c0.482 0 0.875 0.393 0.875 0.875v2.625z"></path>
</svg>
<svg id="icon-earth" width="14" height="14" viewBox="0 0 14 14" x="90" y="120">
<path fill="#222" d="M11.95 2.050c1.322 1.322 2.050 3.080 2.050 4.95s-0.728 3.628-2.050 4.95c-1.322 1.322-3.080 2.050-4.95 2.050s-3.628-0.728-4.95-2.050c-1.322-1.322-2.050-3.080-2.050-4.95s0.728-3.628 2.050-4.95c1.322-1.322 3.080-2.050 4.95-2.050s3.628 0.728 4.95 2.050zM11.331 11.331c0.862-0.862 1.435-1.936 1.672-3.104-0.184 0.271-0.36 0.372-0.47-0.235-0.112-0.99-1.021-0.357-1.593-0.709-0.602 0.405-1.954-0.788-1.724 0.558 0.355 0.607 1.914-0.813 1.137 0.472-0.496 0.897-1.813 2.884-1.642 3.914 0.022 1.5-1.533 0.313-2.069-0.185-0.36-0.997-0.123-2.739-1.065-3.228-1.023-0.044-1.9-0.137-2.297-1.281-0.239-0.818 0.254-2.036 1.13-2.224 1.283-0.806 1.741 0.944 2.945 0.977 0.374-0.391 1.392-0.515 1.476-0.954-0.79-0.139 1.002-0.664-0.076-0.962-0.594 0.070-0.977 0.616-0.661 1.080-1.152 0.269-1.189-1.667-2.296-1.056-0.028 0.965-1.808 0.313-0.616 0.117 0.41-0.179-0.668-0.697-0.086-0.603 0.286-0.016 1.249-0.353 0.988-0.58 0.536-0.333 0.987 0.797 1.511-0.026 0.379-0.633-0.159-0.749-0.634-0.429-0.268-0.3 0.473-0.947 1.126-1.227 0.218-0.093 0.425-0.144 0.584-0.13 0.329 0.38 0.937 0.446 0.969-0.046-0.815-0.39-1.713-0.596-2.643-0.596-1.335 0-2.604 0.424-3.655 1.208 0.282 0.129 0.443 0.29 0.171 0.496-0.211 0.63-1.069 1.475-1.821 1.355-0.391 0.674-0.648 1.416-0.758 2.195 0.63 0.209 0.776 0.621 0.64 0.759-0.321 0.28-0.519 0.677-0.62 1.112 0.205 1.256 0.795 2.413 1.713 3.33 1.157 1.157 2.695 1.794 4.331 1.794s3.174-0.637 4.331-1.794z"></path>
</svg>
<svg id="icon-globe" width="14" height="14" viewBox="0 0 14 14" x="120" y="120">
<path fill="#222" d="M6.563 0.875c-3.624 0-6.563 2.938-6.563 6.563s2.938 6.563 6.563 6.563c3.624 0 6.563-2.938 6.563-6.563s-2.938-6.563-6.563-6.563zM10.276 9.625c0.117-0.553 0.191-1.14 0.215-1.75h1.742c-0.046 0.604-0.186 1.191-0.419 1.75h-1.538zM2.849 5.25c-0.117 0.553-0.191 1.14-0.215 1.75h-1.742c0.046-0.604 0.186-1.191 0.419-1.75h1.538zM9.379 5.25c0.131 0.56 0.211 1.146 0.236 1.75h-2.616v-1.75h2.379zM7 4.375v-2.561c0.199 0.058 0.397 0.155 0.591 0.292 0.363 0.256 0.711 0.651 1.005 1.141 0.203 0.339 0.379 0.717 0.526 1.128h-2.123zM4.529 3.247c0.294-0.491 0.642-0.885 1.005-1.141 0.194-0.137 0.392-0.234 0.591-0.292v2.561h-2.123c0.147-0.411 0.323-0.789 0.526-1.128zM6.125 5.25v1.75h-2.616c0.026-0.604 0.105-1.19 0.236-1.75h2.379zM1.311 9.625c-0.233-0.559-0.374-1.146-0.419-1.75h1.742c0.024 0.61 0.098 1.197 0.215 1.75h-1.538zM3.509 7.875h2.616v1.75h-2.379c-0.131-0.56-0.211-1.146-0.236-1.75zM6.125 10.5v2.561c-0.199-0.058-0.397-0.155-0.591-0.292-0.363-0.256-0.711-0.651-1.005-1.141-0.203-0.339-0.379-0.717-0.526-1.128h2.123zM8.596 11.628c-0.294 0.49-0.642 0.885-1.005 1.141-0.194 0.137-0.392 0.234-0.591 0.292v-2.561h2.123c-0.147 0.411-0.323 0.789-0.526 1.128zM7 9.625v-1.75h2.616c-0.026 0.604-0.105 1.19-0.236 1.75h-2.379zM10.491 7c-0.024-0.61-0.098-1.197-0.215-1.75h1.538c0.233 0.559 0.374 1.146 0.419 1.75h-1.742zM11.357 4.375h-1.311c-0.255-0.803-0.607-1.508-1.030-2.070 0.582 0.278 1.108 0.651 1.568 1.111 0.294 0.294 0.552 0.614 0.772 0.959zM2.541 3.416c0.46-0.46 0.987-0.833 1.568-1.111-0.423 0.562-0.775 1.267-1.030 2.070h-1.311c0.221-0.345 0.479-0.666 0.772-0.959zM1.768 10.5h1.311c0.255 0.803 0.607 1.508 1.030 2.070-0.582-0.278-1.108-0.651-1.568-1.111-0.294-0.294-0.552-0.614-0.772-0.959zM10.584 11.459c-0.46 0.46-0.987 0.833-1.568 1.111 0.423-0.562 0.775-1.267 1.030-2.070h1.311c-0.221 0.345-0.479 0.666-0.772 0.959z"></path>
</svg>
<svg id="icon-star-empty" width="14" height="14" viewBox="0 0 14 14" x="150" y="120">
<path fill="#222" d="M14 5.428l-4.837-0.703-2.163-4.383-2.163 4.383-4.837 0.703 3.5 3.412-0.826 4.817 4.326-2.274 4.326 2.274-0.826-4.817 3.5-3.412zM7 10.302l-3.055 1.606 0.583-3.402-2.472-2.409 3.416-0.496 1.528-3.095 1.528 3.095 3.416 0.496-2.472 2.409 0.583 3.402-3.055-1.606z"></path>
</svg>
<svg id="icon-star-full" width="14" height="14" viewBox="0 0 14 14" x="180" y="120">
<path fill="#222" d="M14 5.428l-4.837-0.703-2.163-4.383-2.163 4.383-4.837 0.703 3.5 3.412-0.826 4.817 4.326-2.274 4.326 2.274-0.826-4.817 3.5-3.412z"></path>
</svg>
<svg id="icon-star-half" width="14" height="14" viewBox="0 0 14 14" x="210" y="120">
<path fill="#222" d="M14 5.428l-4.837-0.703-2.163-4.383-2.163 4.383-4.837 0.703 3.5 3.412-0.826 4.817 4.326-2.274 4.326 2.274-0.826-4.817 3.5-3.412zM7 10.302l-0.013 0.007 0.013-7.803 1.528 3.095 3.416 0.496-2.472 2.409 0.583 3.402-3.055-1.606z"></path>
</svg>
<svg id="icon-info-dark" width="14" height="14" viewBox="0 0 14 14" x="240" y="120">
<path fill="#222" d="M7 0c-3.866 0-7 3.134-7 7s3.134 7 7 7 7-3.134 7-7-3.134-7-7-7zM6.125 2.625h1.75v1.75h-1.75v-1.75zM8.75 11.375h-3.5v-0.875h0.875v-3.5h-0.875v-0.875h2.625v4.375h0.875v0.875z"></path>
</svg>
<svg id="icon-info-light" width="14" height="14" viewBox="0 0 14 14" x="270" y="120">
<path fill="#222" d="M7 0c-3.866 0-7 3.134-7 7s3.134 7 7 7 7-3.134 7-7-3.134-7-7-7zM7 12.688c-3.141 0-5.688-2.546-5.688-5.688s2.546-5.688 5.688-5.688 5.688 2.546 5.688 5.688-2.546 5.688-5.688 5.688zM6.125 3.5h1.75v1.75h-1.75zM8.75 10.5h-3.5v-0.875h0.875v-2.625h-0.875v-0.875h2.625v3.5h0.875z"></path>
</svg>
<svg id="icon-question" width="14" height="14" viewBox="0 0 14 14" x="300" y="120">
<path fill="#222" d="M6.125 9.625h1.75v1.75h-1.75zM9.625 3.5c0.483 0 0.875 0.392 0.875 0.875v2.625l-2.625 1.75h-1.75v-0.875l2.625-1.75v-0.875h-4.375v-1.75h5.25zM7 1.313c-1.519 0-2.947 0.592-4.022 1.666s-1.666 2.502-1.666 4.022c0 1.519 0.592 2.947 1.666 4.022s2.502 1.666 4.022 1.666c1.519 0 2.947-0.592 4.022-1.666s1.666-2.502 1.666-4.022c0-1.519-0.592-2.947-1.666-4.022s-2.502-1.666-4.022-1.666zM7 0v0c3.866 0 7 3.134 7 7s-3.134 7-7 7c-3.866 0-7-3.134-7-7s3.134-7 7-7z"></path>
</svg>
<svg id="icon-notification" width="14" height="14" viewBox="0 0 14 14" x="330" y="120">
<path fill="#222" d="M7 1.313c-1.519 0-2.947 0.592-4.022 1.666s-1.666 2.502-1.666 4.022c0 1.519 0.592 2.947 1.666 4.022s2.502 1.666 4.022 1.666c1.519 0 2.947-0.592 4.022-1.666s1.666-2.502 1.666-4.022c0-1.519-0.592-2.947-1.666-4.022s-2.502-1.666-4.022-1.666zM7 0v0c3.866 0 7 3.134 7 7s-3.134 7-7 7c-3.866 0-7-3.134-7-7s3.134-7 7-7zM6.125 9.625h1.75v1.75h-1.75zM6.125 2.625h1.75v5.25h-1.75z"></path>
</svg>
<svg id="icon-arrow-right-dark" width="14" height="14" viewBox="0 0 14 14" x="360" y="120">
<path fill="#222" d="M0 7c0 3.866 3.134 7 7 7s7-3.134 7-7c0-3.866-3.134-7-7-7s-7 3.134-7 7zM10.5 7l-3.5 3.5v-2.625h-3.5v-1.75h3.5v-2.625l3.5 3.5z"></path>
</svg>
<svg id="icon-arrow-left-dark" width="14" height="14" viewBox="0 0 14 14" x="390" y="120">
<path fill="#222" d="M14 7c0-3.866-3.134-7-7-7s-7 3.134-7 7c0 3.866 3.134 7 7 7s7-3.134 7-7zM3.5 7l3.5-3.5v2.625h3.5v1.75h-3.5v2.625l-3.5-3.5z"></path>
</svg>
<svg id="icon-facebook" width="14" height="14" viewBox="0 0 14 14" x="420" y="120">
<path fill="#222" d="M7 0c3.866 0 7 3.134 7 7 0 3.57-2.672 6.515-6.125 6.946v-5.196h2.406l0.219-1.75h-2.625v-0.875c0-0.483 0.392-0.875 0.875-0.875h1.75v-1.75h-1.75c-1.45 0-2.625 1.175-2.625 2.625v0.875h-1.313v1.75h1.313v5.196c-3.453-0.431-6.125-3.376-6.125-6.946 0-3.866 3.134-7 7-7z"></path>
</svg>
<svg id="icon-twitter" width="14" height="14" viewBox="0 0 14 14" x="450" y="120">
<path fill="#222" d="M7 0c-3.866 0-7 3.134-7 7s3.134 7 7 7 7-3.134 7-7-3.134-7-7-7zM11.023 4.937c0.004 0.089 0.006 0.178 0.006 0.268 0 2.743-2.088 5.906-5.906 5.906-1.172 0-2.263-0.344-3.182-0.933 0.162 0.019 0.328 0.029 0.495 0.029 0.972 0 1.867-0.332 2.578-0.889-0.908-0.017-1.675-0.617-1.939-1.441 0.127 0.024 0.257 0.037 0.391 0.037 0.189 0 0.373-0.025 0.547-0.073-0.95-0.191-1.665-1.030-1.665-2.035 0-0.009 0-0.017 0-0.026 0.28 0.155 0.6 0.249 0.94 0.26-0.557-0.372-0.923-1.008-0.923-1.728 0-0.38 0.102-0.737 0.281-1.043 1.024 1.256 2.553 2.082 4.278 2.169-0.035-0.152-0.054-0.31-0.054-0.473 0-1.146 0.929-2.076 2.076-2.076 0.597 0 1.136 0.252 1.515 0.655 0.473-0.093 0.917-0.266 1.318-0.504-0.155 0.485-0.484 0.891-0.913 1.148 0.42-0.050 0.82-0.162 1.192-0.327-0.278 0.416-0.63 0.782-1.036 1.075z"></path>
</svg>
<svg id="icon-plus-dark" width="14" height="14" viewBox="0 0 14 14" x="0" y="150">
<path fill="#222" d="M7 0c-3.866 0-7 3.134-7 7s3.134 7 7 7 7-3.134 7-7-3.134-7-7-7zM10.5 7.875h-2.625v2.625h-1.75v-2.625h-2.625v-1.75h2.625v-2.625h1.75v2.625h2.625v1.75z"></path>
</svg>
<svg id="icon-minus-dark" width="14" height="14" viewBox="0 0 14 14" x="30" y="150">
<path fill="#222" d="M7 0c-3.866 0-7 3.134-7 7s3.134 7 7 7 7-3.134 7-7-3.134-7-7-7zM10.5 7.875h-7v-1.75h7v1.75z"></path>
</svg>
<svg id="icon-check-dark" width="14" height="14" viewBox="0 0 14 14" x="60" y="150">
<path fill="#222" d="M7 0c-3.866 0-7 3.134-7 7s3.134 7 7 7 7-3.134 7-7-3.134-7-7-7zM5.915 10.23l-3.221-3.221 1.237-1.237 1.983 1.984 4.207-4.207 1.237 1.237-5.444 5.445z"></path>
</svg>
<svg id="icon-close-dark" width="14" height="14" viewBox="0 0 14 14" x="90" y="150">
<path fill="#222" d="M7 0c-3.866 0-7 3.134-7 7s3.134 7 7 7 7-3.134 7-7-3.134-7-7-7zM10.462 9.225l-1.237 1.237-2.225-2.225-2.225 2.225-1.237-1.237 2.225-2.225-2.225-2.225 1.237-1.237 2.225 2.225 2.225-2.225 1.237 1.237-2.225 2.225 2.225 2.225z"></path>
</svg>
<svg id="icon-left-quote-square" width="14" height="14" viewBox="0 0 14 14" x="120" y="150">
<path fill="#222" d="M14 12.25v-5.25h-3.5c0-1.929 1.569-3.5 3.5-3.5v-1.75c-2.895 0-5.25 2.355-5.25 5.25v5.25h5.25zM5.25 12.25v-5.25h-3.5c0-1.929 1.569-3.5 3.5-3.5v-1.75c-2.895 0-5.25 2.355-5.25 5.25v5.25h5.25z"></path>
</svg>
<svg id="icon-right-quote-square" width="14" height="14" viewBox="0 0 14 14" x="150" y="150">
<path fill="#222" d="M0 1.75v5.25h3.5c0 1.929-1.569 3.5-3.5 3.5v1.75c2.895 0 5.25-2.355 5.25-5.25v-5.25h-5.25zM8.75 1.75v5.25h3.5c0 1.929-1.569 3.5-3.5 3.5v1.75c2.895 0 5.25-2.355 5.25-5.25v-5.25h-5.25z"></path>
</svg>
<svg id="icon-ship" width="14" height="14" viewBox="0 0 14 14" x="180" y="150">
<path fill="#222" d="M6.314 11.922l0.042-0.025c0.341-0.212 0.879-0.488 1.644-0.488h0.067c0.119 0 0.23 0.009 0.337 0.021 0.749-1.94 1.818-4.292 2.878-6.095 0.039-0.066 0.040-0.151 0.001-0.219s-0.112-0.11-0.189-0.11h-3.784v2.35c0 0.171-0.139 0.31-0.31 0.31s-0.31-0.138-0.31-0.31v-2.35h-3.782c-0.079 0-0.151 0.042-0.19 0.11s-0.039 0.152 0.001 0.219c1.168 1.989 2.354 4.644 3.1 6.678 0.038 0.009 0.080 0.012 0.153 0.014 0.168-0.004 0.172-0.007 0.342-0.105z"></path>
<path fill="#222" d="M3.874 4.095c-0.211 0-0.382-0.171-0.382-0.382v-0.955c0-0.102 0.040-0.201 0.111-0.272 0.072-0.072 0.169-0.112 0.271-0.112h2.26v-1.508c0-0.072 0.028-0.141 0.079-0.192 0.050-0.049 0.12-0.078 0.19-0.078h1.195c0.071 0 0.14 0.028 0.192 0.079 0.050 0.052 0.078 0.118 0.078 0.192v1.508h2.261c0.101 0 0.198 0.041 0.269 0.112 0.073 0.073 0.113 0.168 0.113 0.272v0.955c0 0.21-0.172 0.382-0.382 0.382h-6.255z"></path>
<path fill="#222" d="M8.851 13.327c0.247 0.155 0.63 0.368 1.209 0.368 0.011 0 0.021 0 0.033 0v-0.825c-0.433-0.009-0.556-0.099-0.818-0.25-0.247-0.155-0.63-0.368-1.208-0.368-0.011 0-0.022 0.001-0.034 0.001s-0.022-0.001-0.033-0.001c-0.579 0-0.963 0.213-1.209 0.368-0.263 0.151-0.386 0.241-0.819 0.25-0.433-0.009-0.556-0.099-0.819-0.25-0.247-0.155-0.63-0.368-1.209-0.368-0.011 0-0.022 0.001-0.034 0.001v0.824c0.433 0.009 0.555 0.099 0.819 0.25 0.248 0.155 0.631 0.368 1.212 0.368 0.010 0 0.021 0 0.031 0s0.021 0 0.031 0c0.579 0 0.965-0.213 1.212-0.368 0.263-0.151 0.386-0.242 0.819-0.25 0.433 0.008 0.554 0.099 0.817 0.25z"></path>
</svg>
<svg id="icon-left-quote" width="14" height="14" viewBox="0 0 14 14" x="210" y="150">
<path fill="#222" d="M3.076 6.125c1.691 0 3.063 1.371 3.063 3.063s-1.371 3.063-3.063 3.063-3.063-1.371-3.063-3.063l-0.014-0.438c0-3.383 2.742-6.125 6.125-6.125v1.75c-1.169 0-2.267 0.455-3.094 1.281-0.159 0.159-0.304 0.328-0.435 0.506 0.156-0.025 0.317-0.038 0.48-0.038zM10.951 6.125c1.691 0 3.063 1.371 3.063 3.063s-1.371 3.063-3.063 3.063-3.063-1.371-3.063-3.063l-0.014-0.438c0-3.383 2.742-6.125 6.125-6.125v1.75c-1.169 0-2.267 0.455-3.094 1.281-0.159 0.159-0.304 0.328-0.435 0.506 0.156-0.025 0.317-0.038 0.48-0.038z"></path>
</svg>
<svg id="icon-right-quote" width="14" height="14" viewBox="0 0 14 14" x="240" y="150">
<path fill="#222" d="M10.938 8.75c-1.691 0-3.063-1.371-3.063-3.063s1.371-3.063 3.063-3.063 3.063 1.371 3.063 3.063l0.014 0.438c0 3.383-2.742 6.125-6.125 6.125v-1.75c1.169 0 2.267-0.455 3.094-1.281 0.159-0.159 0.304-0.328 0.435-0.506-0.156 0.025-0.317 0.038-0.48 0.038zM3.063 8.75c-1.691 0-3.063-1.371-3.063-3.063s1.371-3.063 3.063-3.063 3.063 1.371 3.063 3.063l0.014 0.438c0 3.383-2.742 6.125-6.125 6.125v-1.75c1.169 0 2.267-0.455 3.094-1.281 0.159-0.159 0.304-0.328 0.435-0.506-0.156 0.025-0.317 0.038-0.48 0.038z"></path>
</svg>
<svg id="icon-menu" width="14" height="14" viewBox="0 0 14 14" x="270" y="150">
<path fill="#222" d="M0.875 2.625h12.25v2.625h-12.25zM0.875 6.125h12.25v2.625h-12.25zM0.875 9.625h12.25v2.625h-12.25z"></path>
</svg>
<svg id="icon-menu-down" width="19" height="14" viewBox="0 0 19 14" x="300" y="150">
<path fill="#222" d="M0 2.625h12.25v2.625h-12.25v-2.625zM0 6.125h12.25v2.625h-12.25v-2.625zM0 9.625h12.25v2.625h-12.25v-2.625z"></path>
<path fill="#222" d="M13.563 6.125l2.625 2.625 2.625-2.625z"></path>
</svg>
<svg id="icon-menu-up" width="19" height="14" viewBox="0 0 19 14" x="330" y="150">
<path fill="#222" d="M0 2.625h12.25v2.625h-12.25v-2.625zM0 6.125h12.25v2.625h-12.25v-2.625zM0 9.625h12.25v2.625h-12.25v-2.625z"></path>
<path fill="#222" d="M13.563 8.75l2.625-2.625 2.625 2.625z"></path>
</svg>
<svg id="icon-print" width="14" height="14" viewBox="0 0 14 14" x="360" y="150">
<path fill="#222" d="M3.5 0.875h7v1.75h-7zM13.125 3.5h-12.25c-0.481 0-0.875 0.394-0.875 0.875v4.375c0 0.481 0.394 0.875 0.875 0.875h2.625v3.5h7v-3.5h2.625c0.481 0 0.875-0.394 0.875-0.875v-4.375c0-0.481-0.394-0.875-0.875-0.875zM9.625 12.25h-5.25v-4.375h5.25v4.375zM13.322 4.813c0 0.35-0.284 0.634-0.634 0.634s-0.634-0.284-0.634-0.634 0.284-0.634 0.634-0.634c0.35 0 0.634 0.284 0.634 0.634z"></path>
</svg>
<svg id="icon-clock-start" width="14" height="14" viewBox="0 0 14 14" x="390" y="150">
<path fill="#222" d="M9.006 10.244l-2.881-2.881v-3.862h1.75v3.138l2.369 2.369zM7 0c-3.866 0-7 3.134-7 7s3.134 7 7 7 7-3.134 7-7-3.134-7-7-7zM7 12.25c-2.9 0-5.25-2.35-5.25-5.25s2.35-5.25 5.25-5.25c2.9 0 5.25 2.35 5.25 5.25s-2.35 5.25-5.25 5.25z"></path>
</svg>
<svg id="icon-clock-end" width="14" height="14" viewBox="0 0 14 14" x="420" y="150">
<path fill="#222" d="M7 0c-3.866 0-7 3.134-7 7s3.134 7 7 7 7-3.134 7-7-3.134-7-7-7zM9.006 10.244l-2.881-2.881v-3.862h1.75v3.138l2.369 2.369-1.237 1.237z"></path>
</svg>
<svg id="icon-google-plus" width="14" height="14" viewBox="0 0 14 14" x="450" y="150">
<path fill="#222" d="M5.975 11.186c0 1.026-0.634 1.837-2.43 1.903-1.053-0.599-1.934-1.462-2.555-2.5 0.324-0.8 1.336-1.409 2.493-1.396 0.328 0.003 0.635 0.056 0.913 0.146 0.764 0.531 1.381 0.863 1.536 1.469 0.029 0.123 0.045 0.249 0.045 0.378zM7 0c-2.023 0-3.844 0.858-5.122 2.23 0.505-0.28 1.101-0.446 1.735-0.446 0.917 0 3.506 0 3.506 0l-0.783 0.822h-0.92c0.649 0.372 0.995 1.138 0.995 1.983 0 0.775-0.43 1.4-1.036 1.874-0.592 0.462-0.704 0.656-0.704 1.049 0 0.336 0.707 0.835 1.032 1.079 1.132 0.849 1.361 1.383 1.361 2.445 0 1.076-0.942 2.148-2.541 2.512 0.77 0.292 1.605 0.452 2.478 0.452 3.866 0 7-3.134 7-7s-3.134-7-7-7zM10.5 5.25v1.75h-0.875v-1.75h-1.75v-0.875h1.75v-1.75h0.875v1.75h1.75v0.875h-1.75zM5.001 4.641c0.163 1.241-0.381 2.040-1.325 2.012s-1.843-0.895-2.006-2.136c-0.163-1.241 0.471-2.191 1.415-2.163s1.753 1.046 1.916 2.287zM3.020 8.778c-1.021 0-1.888 0.352-2.5 0.873-0.335-0.818-0.52-1.713-0.52-2.651 0-0.776 0.127-1.523 0.36-2.22 0.101 1.36 1.058 2.409 2.638 2.409 0.116 0 0.229-0.006 0.34-0.014-0.109 0.208-0.186 0.44-0.186 0.683 0 0.41 0.225 0.644 0.504 0.915-0.211 0-0.414 0.006-0.636 0.006z"></path>
</svg>
<svg id="icon-arrow-up-right" width="14" height="14" viewBox="0 0 14 14" x="0" y="180">
<path fill="#222" d="M7 0c-3.866 0-7 3.134-7 7s3.134 7 7 7 7-3.134 7-7-3.134-7-7-7zM7 12.688c-3.141 0-5.688-2.546-5.688-5.688s2.546-5.688 5.688-5.688 5.688 2.546 5.688 5.688-2.546 5.688-5.688 5.688zM5.25 3.5c-0.483 0-0.875 0.392-0.875 0.875s0.392 0.875 0.875 0.875h2.263l-3.756 3.756c-0.342 0.342-0.342 0.896 0 1.237 0.171 0.171 0.395 0.256 0.619 0.256s0.448-0.085 0.619-0.256l3.756-3.756v2.263c0 0.483 0.392 0.875 0.875 0.875s0.875-0.392 0.875-0.875v-5.25h-5.25z"></path>
</svg>
<svg id="icon-arrow-down-right" width="14" height="14" viewBox="0 0 14 14" x="30" y="180">
<path fill="#222" d="M7 14c-3.866 0-7-3.134-7-7s3.134-7 7-7 7 3.134 7 7-3.134 7-7 7zM7 1.313c-3.141 0-5.688 2.546-5.688 5.688s2.546 5.688 5.688 5.688 5.688-2.546 5.688-5.688-2.546-5.688-5.688-5.688zM5.25 10.5c-0.483 0-0.875-0.392-0.875-0.875s0.392-0.875 0.875-0.875h2.263l-3.756-3.756c-0.342-0.342-0.342-0.896 0-1.237 0.171-0.171 0.395-0.256 0.619-0.256s0.448 0.085 0.619 0.256l3.756 3.756v-2.263c0-0.483 0.392-0.875 0.875-0.875s0.875 0.392 0.875 0.875v5.25h-5.25z"></path>
</svg>
<svg id="icon-privacy" width="14" height="14" viewBox="0 0 14 14" x="60" y="180">
<path fill="#222" d="M7 2.625c-3.053 0-5.7 1.778-7 4.375 1.3 2.597 3.947 4.375 7 4.375s5.7-1.778 7-4.375c-1.3-2.597-3.947-4.375-7-4.375zM10.451 4.945c0.823 0.525 1.52 1.227 2.043 2.055-0.524 0.827-1.221 1.53-2.043 2.055-1.034 0.659-2.227 1.008-3.451 1.008s-2.418-0.348-3.451-1.008c-0.823-0.525-1.519-1.227-2.043-2.055 0.524-0.827 1.221-1.53 2.043-2.055 0.054-0.034 0.108-0.067 0.162-0.1-0.136 0.374-0.211 0.777-0.211 1.198 0 1.933 1.567 3.5 3.5 3.5s3.5-1.567 3.5-3.5c0-0.421-0.075-0.824-0.211-1.198 0.054 0.033 0.109 0.066 0.162 0.1zM7 5.605c0 0.725-0.588 1.313-1.313 1.313s-1.313-0.588-1.313-1.313 0.588-1.313 1.313-1.313 1.313 0.588 1.313 1.313z"></path>
</svg>
<svg id="icon-email" width="14" height="14" viewBox="0 0 14 14" x="90" y="180">
<path fill="#222" d="M12.688 1.75h-11.375c-0.722 0-1.313 0.591-1.313 1.313v8.75c0 0.722 0.591 1.313 1.313 1.313h11.375c0.722 0 1.313-0.591 1.313-1.313v-8.75c0-0.722-0.591-1.313-1.313-1.313zM5.452 7.525l-3.702 2.883v-6.858l3.702 3.975zM2.411 3.5h9.177l-4.589 3.445-4.589-3.445zM5.596 7.679l1.404 1.508 1.404-1.508 2.879 3.696h-8.566l2.879-3.696zM8.548 7.525l3.702-3.975v6.858l-3.702-2.883z"></path>
</svg>
<svg id="icon-add" width="14" height="14" viewBox="0 0 14 14" x="0" y="210">
<path fill="#222" d="M11.074 7.574h-3.5v3.5h-1.148v-3.5h-3.5v-1.148h3.5v-3.5h1.148v3.5h3.5v1.148z"></path>
</svg>
<svg id="icon-add_box" width="14" height="14" viewBox="0 0 14 14" x="30" y="210">
<path fill="#222" d="M9.926 7.574v-1.148h-2.352v-2.352h-1.148v2.352h-2.352v1.148h2.352v2.352h1.148v-2.352h2.352zM11.074 1.75c0.629 0 1.176 0.547 1.176 1.176v8.148c0 0.629-0.547 1.176-1.176 1.176h-8.148c-0.656 0-1.176-0.547-1.176-1.176v-8.148c0-0.629 0.52-1.176 1.176-1.176h8.148z"></path>
</svg>
<svg id="icon-email2" width="14" height="14" viewBox="0 0 14 14" x="60" y="210">
<path fill="#222" d="M7 6.426l4.676-2.926h-9.352zM11.676 10.5v-5.824l-4.676 2.898-4.676-2.898v5.824h9.352zM11.676 2.324c0.629 0 1.148 0.547 1.148 1.176v7c0 0.629-0.52 1.176-1.148 1.176h-9.352c-0.629 0-1.148-0.547-1.148-1.176v-7c0-0.629 0.52-1.176 1.148-1.176h9.352z"></path>
</svg>
</svg>
