<?xml version="1.0" encoding="utf-8"?>
<!-- Generated by IcoMoon.io -->
<!DOCTYPE svg PUBLIC "-//W3C//DTD SVG 1.1//EN" "http://www.w3.org/Graphics/SVG/1.1/DTD/svg11.dtd">
<svg version="1.1" xmlns="http://www.w3.org/2000/svg" xmlns:xlink="http://www.w3.org/1999/xlink" width="14" height="14" viewBox="0 0 14 14">
<path fill="#222222" d="M6.314 11.922l0.042-0.025c0.341-0.212 0.879-0.488 1.644-0.488h0.067c0.119 0 0.23 0.009 0.337 0.021 0.749-1.94 1.818-4.292 2.878-6.095 0.039-0.066 0.040-0.151 0.001-0.219s-0.112-0.11-0.189-0.11h-3.784v2.35c0 0.171-0.139 0.31-0.31 0.31s-0.31-0.138-0.31-0.31v-2.35h-3.782c-0.079 0-0.151 0.042-0.19 0.11s-0.039 0.152 0.001 0.219c1.168 1.989 2.354 4.644 3.1 6.678 0.038 0.009 0.080 0.012 0.153 0.014 0.168-0.004 0.172-0.007 0.342-0.105z"></path>
<path fill="#222222" d="M3.874 4.095c-0.211 0-0.382-0.171-0.382-0.382v-0.955c0-0.102 0.040-0.201 0.111-0.272 0.072-0.072 0.169-0.112 0.271-0.112h2.26v-1.508c0-0.072 0.028-0.141 0.079-0.192 0.050-0.049 0.12-0.078 0.19-0.078h1.195c0.071 0 0.14 0.028 0.192 0.079 0.050 0.052 0.078 0.118 0.078 0.192v1.508h2.261c0.101 0 0.198 0.041 0.269 0.112 0.073 0.073 0.113 0.168 0.113 0.272v0.955c0 0.21-0.172 0.382-0.382 0.382h-6.255z"></path>
<path fill="#222222" d="M8.851 13.327c0.247 0.155 0.63 0.368 1.209 0.368 0.011 0 0.021 0 0.033 0v-0.825c-0.433-0.009-0.556-0.099-0.818-0.25-0.247-0.155-0.63-0.368-1.208-0.368-0.011 0-0.022 0.001-0.034 0.001s-0.022-0.001-0.033-0.001c-0.579 0-0.963 0.213-1.209 0.368-0.263 0.151-0.386 0.241-0.819 0.25-0.433-0.009-0.556-0.099-0.819-0.25-0.247-0.155-0.63-0.368-1.209-0.368-0.011 0-0.022 0.001-0.034 0.001v0.824c0.433 0.009 0.555 0.099 0.819 0.25 0.248 0.155 0.631 0.368 1.212 0.368 0.010 0 0.021 0 0.031 0s0.021 0 0.031 0c0.579 0 0.965-0.213 1.212-0.368 0.263-0.151 0.386-0.242 0.819-0.25 0.433 0.008 0.554 0.099 0.817 0.25z"></path>
</svg>
